PathFileType	4	(X/Y/Z)	C:/Users/opensim2020/Desktop/walking_exp_matlab/subject03_walking12_straight_04.trc	
DataRate	CameraRate	NumFrames	NumMarkers	Units	OrigDataRate	OrigDataStartFrame	OrigNumFrames	
100.00	100.00	7	48	mm	100.00	2196	202	
Frame#	Time	LFHD			RFHD			LBHD			RBHD			C7			T10			CLAV			STRN			RBAK			LSHO			LUPA			LELB			LFRM			LWRA			LWRB			LFIN			RSHO			RUPA			RELB			RFRM			RWRA			RWRB			RFIN			LASI			RASI			LPSI			RPSI			LTHI			LKNE			LTIB			LANK			LHEE			LTOE			RTHI			RKNE			RTIB			RANK			RHEE			RTOE			*39			*40			*41			*42			*43			*44			*45			*46			*47			
		X1	Y1	Z1	X2	Y2	Z2	X3	Y3	Z3	X4	Y4	Z4	X5	Y5	Z5	X6	Y6	Z6	X7	Y7	Z7	X8	Y8	Z8	X9	Y9	Z9	X10	Y10	Z10	X11	Y11	Z11	X12	Y12	Z12	X13	Y13	Z13	X14	Y14	Z14	X15	Y15	Z15	X16	Y16	Z16	X17	Y17	Z17	X18	Y18	Z18	X19	Y19	Z19	X20	Y20	Z20	X21	Y21	Z21	X22	Y22	Z22	X23	Y23	Z23	X24	Y24	Z24	X25	Y25	Z25	X26	Y26	Z26	X27	Y27	Z27	X28	Y28	Z28	X29	Y29	Z29	X30	Y30	Z30	X31	Y31	Z31	X32	Y32	Z32	X33	Y33	Z33	X34	Y34	Z34	X35	Y35	Z35	X36	Y36	Z36	X37	Y37	Z37	X38	Y38	Z38	X39	Y39	Z39	X40	Y40	Z40	X41	Y41	Z41	X42	Y42	Z42	X43	Y43	Z43	X44	Y44	Z44	X45	Y45	Z45	X46	Y46	Z46	X47	Y47	Z47	X48	Y48	Z48	

51	0.500	1474.18188	856.93335	1607.11951	1343.17261	878.19073	1613.17236	1490.33765	985.29211	1566.35803	1360.41138	1001.21796	1571.56348	1420.06348	1024.32983	1406.31274	1412.25220	1063.35095	1093.06702	1416.49243	905.22235	1326.88623	1419.19495	863.06989	1161.40454	1314.88684	1076.59546	1232.04358	1574.49695	951.11627	1360.47693	1639.03259	984.27808	1162.94763	1651.62854	991.72089	1039.20288	1653.72742	981.41431	908.61707	1625.80798	972.66388	788.98022	1673.16370	1001.59088	796.53082	1665.35071	993.52405	712.95490	1259.43359	947.22253	1356.47290	1181.70789	910.70691	1139.96936	1171.38672	873.81342	1033.32751	1177.97632	821.85339	907.11163	1223.03198	773.11493	825.00128	1175.88135	795.03082	810.29950	1193.00549	753.76154	749.69257	1531.98767	896.57965	933.23395	1295.05713	904.26306	924.82184	1487.34729	1061.71533	946.76978	1337.52893	1062.08667	957.14697	1588.24060	865.84753	641.86792	1550.26575	794.07587	481.23685	1561.65527	788.25854	286.42422	1533.62720	743.91302	79.19737	1496.42896	774.94635	32.97254	1500.35107	593.42505	76.34109	1263.14954	995.59381	634.21234	1303.90051	1020.97552	457.36295	1300.13489	1107.29639	283.81644	1346.98157	1191.30237	82.82498	1393.06433	1244.17871	57.65356	1369.61951	1057.56323	36.65494																											 
52	0.510	1475.38843	842.92358	1605.21851	1344.44238	864.50226	1611.40869	1491.36292	970.82062	1563.80103	1361.93140	987.30908	1569.31079	1421.64771	1010.15424	1404.32532	1414.00647	1049.49915	1091.20435	1417.34155	890.87683	1324.70557	1419.48804	849.24512	1159.08411	1316.28760	1063.12292	1230.45874	1575.75806	935.86456	1357.90234	1639.49731	971.21716	1160.40735	1651.68701	980.91217	1036.80457	1653.77612	975.73322	905.85541	1625.56445	973.16327	785.52588	1674.23792	1001.34558	794.96405	1665.83105	998.97180	710.51721	1260.41516	933.21497	1354.55054	1182.80261	895.66650	1138.62415	1172.58777	857.31097	1032.54456	1180.06433	802.25751	907.72125	1225.67664	751.61340	827.36194	1178.81226	773.21729	811.66028	1196.12378	729.88495	752.86871	1532.39465	881.36566	930.84387	1295.29065	891.74707	922.79498	1489.93604	1046.95251	944.39160	1340.03760	1049.14624	954.98950	1590.94202	853.77032	637.94495	1549.77600	780.54816	478.63248	1562.92261	767.03357	286.07022	1536.12915	712.37366	80.64738	1500.25598	742.01953	33.04586	1502.40076	562.09845	83.79487	1263.14563	985.88696	633.27051	1304.00464	1012.39093	456.50256	1300.40857	1102.38831	284.31610	1347.09912	1190.33069	84.84580	1393.28821	1243.55139	60.71755	1369.59827	1057.39160	36.63578																											 
53	0.520	1476.64795	828.80652	1603.39795	1345.74548	850.66333	1609.72705	1493.19641	956.84058	1561.85669	1363.42725	973.35773	1567.34827	1423.13293	995.78961	1402.31079	1415.83459	1035.44641	1089.42004	1418.26831	876.50897	1322.78101	1419.82410	835.11157	1157.03210	1317.83533	1049.58850	1228.99048	1576.98535	920.50964	1355.44543	1640.04773	958.16925	1158.11426	1651.94299	969.97693	1034.77722	1653.96338	969.80951	903.69427	1625.85278	973.38910	782.87750	1675.36523	999.66724	793.85425	1666.20728	1003.76337	708.94885	1261.43652	919.57788	1353.04883	1183.92554	880.93146	1137.35071	1173.99731	841.20386	1031.77209	1182.08228	783.34863	908.39313	1228.05322	730.31628	830.00189	1181.67822	752.07690	813.12073	1198.99805	706.84808	756.15118	1532.64514	866.06561	928.51379	1295.48547	879.00464	920.87750	1492.76318	1032.27380	942.41058	1342.62012	1036.00598	952.99445	1594.07959	841.55182	634.27448	1549.86011	766.98108	476.43759	1564.01196	746.43152	286.00195	1538.05823	684.70544	82.22798	1502.85913	713.06244	33.49031	1504.74268	534.36755	90.21529	1264.25806	975.22290	632.13904	1304.26575	1003.74207	455.34616	1300.63062	1096.84155	284.96823	1346.93176	1189.11487	87.48300	1393.28174	1242.82629	64.45308	1369.61279	1057.15332	36.64465																											 
54	0.530	1477.86975	814.60944	1601.72937	1347.03760	836.84271	1608.22754	1494.24060	942.32007	1559.83081	1364.92822	959.44952	1565.72119	1424.79553	981.39728	1400.55872	1417.66895	1021.08350	1087.77820	1419.14478	862.01062	1320.91211	1420.14014	821.18317	1155.10608	1319.51746	1035.86060	1227.52734	1578.27380	905.08173	1353.34448	1640.78772	945.08704	1156.18896	1652.35620	958.89935	1033.11609	1654.42065	963.27850	902.04877	1626.99841	973.20526	781.48505	1676.63464	997.29852	793.59009	1666.54224	1007.62616	708.83905	1262.80530	906.15295	1351.42297	1185.03906	866.60437	1136.27112	1175.41199	825.58008	1031.20996	1184.10999	765.13434	909.23694	1230.40503	709.93549	832.75116	1184.50623	731.73633	814.73096	1201.96411	684.17822	759.57574	1532.86218	850.62744	926.46613	1295.69385	866.00604	919.16162	1495.47388	1017.24683	940.76172	1345.22009	1022.67200	951.09430	1596.15320	829.17456	631.27448	1549.54688	752.43182	474.70877	1564.74683	726.31433	286.07596	1539.50916	660.91498	83.60463	1504.22424	688.13788	33.77714	1507.08911	510.44339	94.76280	1264.79565	964.30969	631.15759	1304.37891	994.04095	454.33011	1300.76575	1090.74915	285.69366	1346.75891	1187.44629	90.41245	1393.01660	1241.75977	68.52383	1369.48889	1056.81702	36.62645																											 
55	0.540	1479.09094	800.35663	1600.27026	1348.31116	822.88721	1606.97388	1496.02209	928.30347	1558.38477	1366.36523	945.41138	1564.28369	1426.52466	966.92712	1399.02319	1419.51160	1006.50732	1086.23682	1420.22131	847.41827	1319.39233	1420.58008	806.61560	1153.48828	1321.36316	1021.92859	1226.11523	1579.58179	889.65186	1351.55005	1641.68555	931.82593	1154.60449	1652.65186	947.23108	1031.70813	1655.10449	956.11243	901.00116	1627.59875	971.11346	780.68549	1678.03015	993.75830	793.89484	1667.16980	1010.33228	709.46826	1263.99731	892.67346	1350.17236	1186.28894	852.49084	1135.39697	1176.90247	810.50330	1030.78687	1186.07495	747.54138	910.23535	1232.63196	690.38239	835.62207	1187.28821	712.17657	816.52893	1204.57874	662.86340	763.29095	1532.98975	834.94269	924.78094	1295.99182	852.71045	917.54211	1497.82617	1001.39215	939.37195	1347.73547	1008.99115	949.38330	1596.96362	815.12653	629.51678	1549.97791	738.15002	473.85513	1565.67249	708.09955	286.04855	1540.37256	641.14502	83.88254	1505.05994	667.61261	33.45877	1508.79138	490.72644	97.07581	1265.37988	952.84283	630.30212	1304.47644	983.43597	453.26047	1300.86133	1083.85144	286.61200	1346.34326	1185.46631	93.68037	1392.50244	1240.36279	73.24088	1369.54138	1056.57568	36.60218																											 
56	0.550	1480.25598	786.08038	1599.02917	1349.55371	808.94818	1605.89648	1496.96924	913.70197	1556.88257	1367.77576	931.40363	1563.16077	1428.33887	952.37531	1397.66565	1421.40027	991.95215	1084.86023	1421.28162	832.86353	1318.03894	1421.16418	792.16956	1152.16931	1323.34216	1007.85193	1224.78650	1580.93677	874.15918	1350.09753	1642.71167	918.23480	1153.43347	1653.36646	935.44708	1030.80139	1655.98743	948.07538	900.38324	1627.93359	967.52954	780.23694	1679.59363	988.71045	794.63104	1668.00085	1011.89227	711.26849	1265.36914	879.22455	1349.27075	1187.59656	838.68335	1134.66638	1178.41882	795.93921	1030.51160	1187.97668	730.79761	911.33313	1234.67346	671.67120	838.54187	1189.93262	693.56409	818.33313	1207.06360	642.07318	767.14844	1533.13306	819.24359	923.58624	1296.34387	839.07996	916.06555	1500.08813	985.84375	938.45227	1350.03564	994.93433	947.85132	1596.57581	799.45679	628.93463	1549.99548	722.73853	473.52838	1566.13037	691.64661	285.48105	1541.53418	625.96436	83.56596	1506.10193	651.96442	32.46139	1509.50403	475.07623	96.87298	1266.00513	940.70392	629.46143	1304.58191	971.94086	452.26080	1300.89746	1076.24902	287.66208	1345.93799	1183.27759	97.53514	1391.83154	1238.64014	78.79610	1369.32251	1056.24658	36.33564																											 
57	0.560	1481.36084	771.79602	1598.09302	1350.70703	794.95679	1605.01880	1498.79114	899.69952	1556.04724	1369.23682	917.37579	1562.19641	1430.15137	937.73755	1396.43323	1423.07141	977.10052	1083.67395	1422.48340	818.11597	1317.02356	1421.88940	777.30505	1151.15210	1325.51636	993.58899	1223.47937	1582.32813	858.44958	1348.94727	1643.85876	904.27777	1152.58228	1654.46960	923.47095	1030.30408	1656.98450	939.08282	900.16876	1629.24536	962.40399	780.67151	1680.97424	981.92242	795.35522	1668.63269	1011.79260	713.55798	1266.63318	865.60339	1348.49561	1188.95679	825.05927	1134.16907	1179.93372	781.82129	1030.36987	1189.87793	714.66705	912.38867	1236.56714	653.83392	841.37549	1192.44128	675.86414	820.11768	1209.37390	623.25092	770.69678	1533.29272	803.27747	922.88385	1296.76501	825.05585	914.75043	1501.88306	970.13452	937.94952	1352.02197	980.32654	946.55499	1596.20020	782.53833	629.21729	1550.69666	707.15210	473.88101	1566.80017	677.35938	284.47485	1541.65686	613.63367	81.27284	1507.21313	640.96735	30.69876	1509.02002	463.63721	93.64985	1266.79028	927.78571	628.53876	1304.66870	959.62445	451.25708	1300.80518	1067.91113	288.83862	1345.27893	1180.21814	102.03294	1391.01843	1236.34558	84.92825	1369.15613	1055.80566	36.12698																											 
